<?xml version="1.0" encoding="utf-8"?>
<!-- Generator: Adobe Illustrator 24.0.1, SVG Export Plug-In . SVG Version: 6.00 Build 0)  -->
<svg version="1.1" xmlns="http://www.w3.org/2000/svg" xmlns:xlink="http://www.w3.org/1999/xlink" x="0px" y="0px"
	 viewBox="0 0 128 128" style="enable-background:new 0 0 128 128;" xml:space="preserve">
<style type="text/css">
	.st0{fill:#29374A;}
	.st1{fill:#EB2C53;}
</style>
<g id="Layer_1">
	<g>
		<rect class="st0" width="128" height="128"/>
	</g>
</g>
<g id="Layer_2">
	<path class="st1" d="M84,38H44c-2.8,0-5-2.2-5-5v0c0-2.8,2.2-5,5-5h40c2.8,0,5,2.2,5,5v0C89,35.8,86.8,38,84,38z"/>
	<path class="st1" d="M84,58H44c-2.8,0-5-2.2-5-5v0c0-2.8,2.2-5,5-5h40c2.8,0,5,2.2,5,5v0C89,55.8,86.8,58,84,58z"/>
	<path class="st1" d="M84,78H44c-2.8,0-5-2.2-5-5v0c0-2.8,2.2-5,5-5h40c2.8,0,5,2.2,5,5v0C89,75.8,86.8,78,84,78z"/>
	<path class="st1" d="M84,98H44c-2.8,0-5-2.2-5-5v0c0-2.8,2.2-5,5-5h40c2.8,0,5,2.2,5,5v0C89,95.8,86.8,98,84,98z"/>
</g>
</svg>
